<?xml version="1.0" encoding="UTF-8" standalone="no"?>
<svg
   width="17.874"
   height="15.711"
   viewBox="0 0 17.874 15.711"
   version="1.1"
   id="svg1"
   sodipodi:docname="line.svg"
   inkscape:version="1.3.2 (091e20e, 2023-11-25, custom)"
   xmlns:inkscape="http://www.inkscape.org/namespaces/inkscape"
   xmlns:sodipodi="http://sodipodi.sourceforge.net/DTD/sodipodi-0.dtd"
   xmlns="http://www.w3.org/2000/svg"
   xmlns:svg="http://www.w3.org/2000/svg">
  <defs
     id="defs1" />
  <sodipodi:namedview
     id="namedview1"
     pagecolor="#ffffff"
     bordercolor="#000000"
     borderopacity="0.25"
     inkscape:showpageshadow="2"
     inkscape:pageopacity="0.0"
     inkscape:pagecheckerboard="0"
     inkscape:deskcolor="#d1d1d1"
     inkscape:zoom="8"
     inkscape:cx="-37.9375"
     inkscape:cy="20.9375"
     inkscape:window-width="1920"
     inkscape:window-height="991"
     inkscape:window-x="-9"
     inkscape:window-y="-9"
     inkscape:window-maximized="1"
     inkscape:current-layer="svg1" />
  <path
     id="triangle"
     d="M 16.507418,0.04808709 A 1.6321778,0.89048816 0 0 0 15.993365,0.06366814 1.6321778,0.89048816 0 0 0 14.915279,0.49604233 L 0.21834034,14.374863 a 1.6321778,0.89048816 0 0 0 1.42078756,1.336074 h 0.1427927 c 0.00868,-0.0014 0.015737,-0.0025 0.024989,-0.0039 0.048616,-0.0074 0.097757,-0.0121 0.1463623,-0.01947 0.056989,-0.0092 0.1164366,-0.01419 0.1749209,-0.01947 0.040242,-0.003 0.078293,-0.01054 0.1178037,-0.01559 0.052151,-0.0063 0.1055286,-0.0118 0.1570711,-0.01947 0.04244,-0.0068 0.083537,-0.01694 0.1249429,-0.02532 0.028595,-0.0063 0.058687,-0.0113 0.085676,-0.01947 0.017565,-0.0054 0.033729,-0.01105 0.049978,-0.01753 0.01592,-0.0066 0.026709,-0.01324 0.042837,-0.02142 0.00574,-0.0031 0.011643,-0.0071 0.017857,-0.01169 0.019723,-0.01719 0.038268,-0.03446 0.060687,-0.05064 0.030929,-0.02434 0.070794,-0.04437 0.1106646,-0.06427 0.04365,-0.02071 0.094586,-0.03714 0.1427927,-0.05454 v -0.002 c 0.02856,-0.0332 0.063353,-0.06547 0.096384,-0.09739 0.022211,-0.02352 0.045377,-0.04667 0.067826,-0.07011 0.036168,-0.03608 0.073028,-0.0715 0.1106646,-0.10712 0.030004,-0.02898 0.05681,-0.05932 0.082106,-0.08959 0.023472,-0.02743 0.045452,-0.05603 0.067826,-0.08374 0.02268,-0.03254 0.049883,-0.06436 0.078536,-0.09543 0.029403,-0.02966 0.057682,-0.05864 0.089245,-0.08764 0.026053,-0.02508 0.056574,-0.04803 0.085676,-0.07207 0.03156,-0.02519 0.06002,-0.05189 0.089245,-0.07791 0.031141,-0.02692 0.059703,-0.05527 0.085676,-0.08374 0.023077,-0.02591 0.044915,-0.05189 0.067826,-0.07791 0.021757,-0.02297 0.038028,-0.04649 0.057117,-0.07011 0.018058,-0.02399 0.036632,-0.04866 0.057117,-0.07207 0.022203,-0.0272 0.050654,-0.05226 0.078537,-0.07791 0.029531,-0.02845 0.06727,-0.05449 0.099954,-0.0818 0.026064,-0.02046 0.04934,-0.0417 0.074967,-0.06232 0.025212,-0.018 0.044352,-0.03863 0.064256,-0.05842 0.0021,-0.0021 0.00499,-0.0038 0.00715,-0.0059 0.00969,-0.01645 0.017364,-0.03332 0.032128,-0.04869 0.010711,-0.0111 0.02559,-0.02559 0.035698,-0.03506 0.021012,-0.0239 0.042927,-0.0466 0.071397,-0.06817 0.021809,-0.01652 0.038966,-0.03015 0.057117,-0.04091 L 16.336067,2.7221849 l 0.01078,0.00974 c 0.0033,-0.00535 0.0086,-0.00999 0.01078,-0.015581 0.01097,-0.02474 0.02904,-0.049405 0.04997,-0.072063 0.01682,-0.016875 0.03539,-0.032266 0.05355,-0.048691 0.01316,-0.011121 0.0265,-0.021845 0.03928,-0.03311 0.01663,-0.015835 0.03467,-0.031665 0.05355,-0.046743 0.01535,-0.01309 0.02941,-0.027215 0.04284,-0.040901 0.0187,-0.018511 0.03482,-0.037976 0.05355,-0.056482 0.02535,-0.024876 0.05344,-0.048289 0.0821,-0.072063 0.0227,-0.018866 0.04515,-0.037613 0.06783,-0.056482 0.01868,-0.016426 0.03403,-0.03339 0.04997,-0.050638 0.01535,-0.016422 0.03221,-0.033902 0.04641,-0.050638 0.01608,-0.020097 0.03337,-0.038477 0.04997,-0.058429 0.01839,-0.022927 0.03577,-0.047053 0.05355,-0.070114 0.01682,-0.019797 0.03188,-0.040041 0.04641,-0.060377 0.01444,-0.019168 0.03158,-0.037417 0.04641,-0.056482 0.02683,-0.034442 0.06269,-0.066806 0.09638,-0.099329 0.03096,-0.029512 0.06145,-0.058261 0.09281,-0.087644 0.02542,-0.023316 0.05293,-0.046853 0.07854,-0.070114 0.02206,-0.021222 0.04401,-0.042502 0.06426,-0.064272 0.02456,-0.0291 0.04922,-0.056889 0.07497,-0.085695 0.02118,-0.023669 0.04105,-0.048 0.06068,-0.072063 l 0.0037,-0.00194 c -0.0055,-0.037435 0.0038,-0.081834 0.0357,-0.1324389 0.01828,-0.029092 0.03995,-0.057098 0.06068,-0.085695 0.017,-0.021553 0.02899,-0.044016 0.04284,-0.066219 0.01499,-0.025694 0.02985,-0.050573 0.04641,-0.075958 0.017,-0.025646 0.03784,-0.052755 0.05712,-0.077905 0.01389,-0.017259 0.02175,-0.0341597 0.02857,-0.0525857 0.0086,-0.0253694 0.01499,-0.0502413 0.01791,-0.0759577 0.0029,-0.028363 0.0029,-0.0572984 0.0037,-0.0856953 0.001,-0.0115883 -0.0029,-0.0233053 -0.0037,-0.0350571 -3.02e-4,-0.001266 3.07e-4,-0.002623 0,-0.003899 -0.0037,-0.0154753 -0.0069,-0.0309846 -0.01078,-0.0467431 -0.008,-0.0306685 -0.01371,-0.0611635 -0.02499,-0.0915388 -0.0091,-0.0207535 -0.02341,-0.0408867 -0.03926,-0.0603767 -0.02135,-0.0225674 -0.04637,-0.044666 -0.06426,-0.0681667 -0.01316,-0.0187441 -0.02407,-0.0388165 -0.03213,-0.0584292 0.0012,9.9719e-4 1.54e-4,-0.001815 0,-0.001945 a 1.6321778,0.89048816 0 0 0 -0.0071,-0.005844 1.6321778,0.89048816 0 0 0 -1.16733,-0.38952625 z"
     style="stroke-width:1.35004" />
</svg>
